 <svg  version="1.0" xmlns="http://www.w3.org/2000/svg"  width="204.000000pt" height="192.000000pt" viewBox="0 0 204.000000 192.000000"  preserveAspectRatio="xMidYMid meet">  <g transform="translate(0.000000,192.000000) scale(0.100000,-0.100000)" fill="#c0c0c0" stroke="none"> <path d="M624 1116 c-6 -6 -34 -32 -62 -58 -30 -26 -48 -49 -42 -53 6 -4 3 -13 -9 -23 -18 -16 -17 -19 48 -73 l67 -57 62 60 62 60 -23 19 c-12 10 -41 34 -64 51 -23 18 -43 36 -43 41 0 18 30 3 78 -39 30 -26 57 -42 63 -38 8 5 1 17 -22 36 -95 80 -104 86 -115 74z m-40 -128 c5 -10 7 -10 12 0 3 6 14 12 24 12 10 0 21 -6 24 -12 5 -10 7 -10 12 0 12 25 24 11 23 -25 -1 -34 -2 -35 -9 -13 -5 17 -8 19 -9 8 -1 -19 -21 -26 -21 -7 0 6 -8 3 -17 -7 -17 -16 -18 -16 -21 -1 -4 18 -22 24 -22 7 0 -5 -4 -10 -10 -10 -5 0 -10 14 -10 30 0 30 14 40 24 18z"/> <path d="M820 990 c0 -83 1 -90 20 -90 17 0 20 7 20 40 0 22 5 40 10 40 6 0 10 -18 10 -40 0 -33 3 -40 20 -40 19 0 20 7 20 90 0 83 -1 90 -20 90 -16 0 -20 -7 -20 -35 0 -19 -4 -35 -10 -35 -5 0 -10 16 -10 35 0 28 -4 35 -20 35 -19 0 -20 -7 -20 -90z"/> <path d="M1010 990 c0 -82 2 -90 19 -90 18 0 19 5 14 55 -3 32 -2 55 4 55 5 0 10 -21 12 -47 1 -26 4 -50 7 -55 12 -19 22 -4 27 44 4 28 11 56 17 62 8 8 9 -6 4 -51 -6 -60 -5 -63 15 -63 20 0 21 5 21 90 l0 90 -30 0 c-28 0 -30 -2 -30 -40 0 -22 -4 -40 -10 -40 -5 0 -10 18 -10 40 0 38 -2 40 -30 40 l-30 0 0 -90z"/> <path d="M1170 990 l0 -90 35 0 c28 0 35 4 35 20 0 11 -6 19 -12 18 -7 -2 -14 7 -16 20 -2 15 2 22 12 22 9 0 16 7 16 15 0 8 -7 15 -15 15 -9 0 -15 9 -15 21 0 15 5 19 15 15 10 -4 15 1 15 14 0 16 -7 20 -35 20 l-35 0 0 -90z"/> <path d="M1260 989 l0 -90 48 3 47 3 3 81 3 81 -32 7 c-70 14 -69 15 -69 -85z m63 1 c0 -31 -5 -56 -12 -58 -7 -2 -11 16 -11 58 0 42 4 60 11 58 7 -2 12 -27 12 -58z"/> <path d="M1385 990 c0 -87 1 -90 23 -90 21 0 22 3 22 90 0 87 -1 90 -22 90 -22 0 -23 -3 -23 -90z"/> <path d="M1446 1048 c9 -41 10 -53 1 -105 -7 -39 -5 -43 13 -43 16 0 20 7 20 30 0 38 18 40 22 3 2 -20 9 -29 25 -31 22 -3 22 -3 7 48 -8 28 -13 60 -10 70 4 11 9 29 12 40 4 15 1 20 -15 20 -16 0 -21 -6 -21 -26 0 -14 -4 -23 -10 -19 -5 3 -10 15 -10 26 0 13 -7 19 -21 19 -18 0 -20 -4 -13 -32z"/> <path d="M940 975 c0 -9 9 -15 25 -15 16 0 25 6 25 15 0 9 -9 15 -25 15 -16 0 -25 -6 -25 -15z"/> <path d="M1526 875 c-3 -8 -2 -23 1 -32 6 -17 6 -17 -10 -1 -20 19 -51 17 -55 -3 -4 -22 75 -21 83 0 3 9 2 17 -4 19 -5 2 -7 10 -4 18 3 8 3 14 0 14 -3 0 -7 -7 -11 -15z"/> <path d="M1217 874 c-3 -3 -3 -13 0 -22 5 -11 3 -13 -8 -6 -21 13 -39 14 -39 1 0 -7 -5 -5 -10 3 -8 12 -10 12 -10 -5 0 -18 6 -20 57 -19 44 0 59 4 61 15 2 11 -5 15 -20 15 -13 -1 -22 4 -20 12 2 13 -1 15 -11 6z"/> <path d="M1416 855 c-4 -15 -5 -30 -1 -33 3 -3 5 3 5 14 1 19 1 19 15 0 8 -11 15 -15 15 -9 0 6 3 20 6 30 4 14 4 15 -4 4 -8 -11 -11 -10 -19 4 -9 15 -11 14 -17 -10z"/> <path d="M1058 862 c7 -5 10 -16 6 -27 -7 -16 -6 -16 14 1 29 24 28 29 -5 32 -18 1 -23 -1 -15 -6z"/> <path d="M1114 862 c4 -7 1 -15 -8 -18 -23 -9 -20 -23 4 -21 26 2 33 22 12 39 -12 10 -14 10 -8 0z"/> <path d="M1293 833 c3 -15 -2 -27 -12 -33 -9 -5 -11 -10 -4 -10 6 0 18 9 26 20 8 11 17 17 22 12 4 -4 5 2 2 13 -7 19 -6 19 7 2 15 -19 33 -19 53 0 18 16 16 22 -7 20 -11 -1 -20 -6 -20 -12 0 -6 -3 -7 -8 0 -4 6 -20 10 -35 11 -25 0 -28 -3 -24 -23z"/> </g> </svg> 