 <svg  version="1.0" xmlns="http://www.w3.org/2000/svg"  width="225.000000pt" height="225.000000pt" viewBox="0 0 225.000000 225.000000"  preserveAspectRatio="xMidYMid meet">  <g transform="translate(0.000000,225.000000) scale(0.100000,-0.100000)" fill="#c0c0c0" stroke="none"> <path d="M1002 1922 l-93 -87 1 -107 c0 -101 1 -108 23 -119 12 -7 24 -15 27 -18 3 -3 24 -19 48 -34 l42 -27 0 -295 c0 -286 1 -295 20 -295 19 0 19 11 22 533 2 292 3 533 3 534 0 1 -42 -38 -93 -85z m70 -178 c0 -88 -1 -169 -1 -182 -1 -22 -2 -21 -48 11 -27 18 -56 36 -65 40 -10 3 -18 14 -17 24 0 16 1 16 9 -2 5 -12 9 -14 9 -6 1 8 -6 23 -16 33 -9 10 -12 18 -7 18 12 0 11 83 -1 92 -6 5 -5 8 4 8 9 0 11 8 7 25 -4 14 -2 25 3 25 6 0 31 20 57 46 30 28 50 42 56 36 6 -6 10 -81 10 -168z"/> <path d="M1117 1943 c-4 -4 -7 -231 -6 -506 1 -437 3 -498 16 -493 8 3 15 6 16 6 7 0 -4 995 -10 997 -5 2 -13 0 -16 -4z"/> <path d="M1166 1913 c-3 -4 -6 -222 -6 -485 0 -449 1 -478 18 -478 16 0 17 30 17 480 0 466 -3 509 -29 483z"/> <path d="M1216 1874 c-3 -8 -6 -218 -6 -465 0 -447 0 -449 21 -449 11 0 18 3 15 8 -8 13 -8 548 -1 727 7 147 6 172 -7 183 -13 10 -17 10 -22 -4z"/> <path d="M1303 1652 l-53 -47 0 -317 c0 -174 4 -319 9 -322 4 -3 8 68 8 157 0 463 1 487 24 487 11 0 18 4 14 9 -3 5 5 11 17 13 13 2 22 9 20 16 -1 8 2 11 8 7 6 -4 10 -118 10 -324 0 -310 -1 -319 -20 -324 -20 -5 -28 -27 -10 -27 6 0 10 5 10 10 0 6 8 10 18 10 17 0 18 20 21 317 1 175 4 320 7 322 2 2 4 -138 4 -313 l0 -316 25 16 25 16 0 300 c0 197 -3 297 -10 293 -5 -3 -10 -1 -10 4 0 6 -7 11 -15 11 -8 0 -15 5 -15 11 0 6 -6 9 -14 6 -9 -4 -16 1 -18 14 -3 16 -11 12 -55 -29z m106 -616 c-8 -8 -10 65 -6 284 4 162 7 297 9 300 1 3 4 -125 5 -284 3 -206 0 -293 -8 -300z"/> <path d="M788 1590 c-42 -22 -79 -43 -81 -48 -5 -7 -10 -296 -8 -483 l1 -86 48 -6 c58 -6 70 0 15 9 l-40 6 -2 76 c-2 43 -3 86 -2 97 1 11 4 94 7 184 4 126 9 169 21 188 12 18 18 21 24 11 8 -13 10 -11 13 13 1 15 76 18 76 4 1 -5 1 -139 1 -297 0 -173 4 -288 10 -288 5 0 9 131 9 330 0 182 -3 330 -7 330 -5 -1 -43 -19 -85 -40z"/> <path d="M900 1275 c0 -282 2 -325 15 -325 13 0 15 41 15 309 0 170 -3 316 -6 325 -19 50 -24 -14 -24 -309z"/> <path d="M951 1257 c-1 -251 2 -318 12 -315 9 4 13 76 15 307 1 187 -1 300 -7 297 -5 -4 -12 2 -14 11 -3 10 -5 -125 -6 -300z m16 -164 c-1 -76 -3 -14 -3 137 0 151 2 213 3 138 2 -76 2 -200 0 -275z"/> <path d="M1000 1235 c0 -252 2 -295 15 -295 12 0 13 25 7 173 -3 94 -6 227 -6 295 0 67 -3 122 -8 122 -4 0 -8 -133 -8 -295z"/> <path d="M421 1345 c0 -16 7 -46 15 -65 l14 -35 -6 45 c-4 25 -10 54 -15 65 -6 17 -8 15 -8 -10z"/> <path d="M2030 1330 c0 -22 4 -40 8 -40 4 0 8 18 9 40 0 22 -3 40 -8 40 -5 0 -9 -18 -9 -40z"/> <path d="M1450 1216 c0 -3 10 -21 21 -41 41 -69 6 -140 -92 -189 -27 -13 -46 -26 -43 -29 3 -3 -5 -3 -18 0 -17 3 -19 2 -9 -5 11 -8 9 -10 -10 -9 -13 0 -71 -5 -128 -12 -113 -15 -260 -9 -396 15 -76 13 -82 13 -132 -8 -29 -12 -53 -25 -53 -28 0 -10 180 -38 286 -45 167 -11 386 23 510 80 110 50 166 117 150 180 -10 38 -86 118 -86 91z m-658 -297 c9 -5 34 -10 55 -10 21 -1 29 -4 19 -6 -15 -4 -16 -7 -5 -14 9 -6 1 -7 -21 -2 -19 3 -36 9 -38 14 -2 4 -12 4 -24 1 -14 -3 -19 -1 -14 6 9 15 5 15 -30 2 -22 -9 -25 -8 -16 3 7 8 8 17 4 21 -8 9 46 -3 70 -15z"/> <path d="M300 1080 c0 -5 3 -10 8 -10 4 0 24 -17 45 -37 31 -29 41 -33 48 -22 5 8 8 19 8 24 0 6 -3 4 -6 -2 -5 -13 -60 19 -76 45 -10 14 -27 16 -27 2z"/> <path d="M1403 852 c-22 -3 -23 -7 -23 -103 l0 -100 26 3 27 3 0 98 c0 54 -2 99 -4 100 -2 2 -14 1 -26 -1z"/> <path d="M1567 853 l-28 -4 3 -97 3 -97 28 -3 27 -3 0 105 c0 58 -1 105 -2 105 -2 -1 -16 -4 -31 -6z"/> <path d="M530 750 l0 -100 26 0 c25 0 25 2 19 40 -4 23 -3 40 3 40 5 0 17 -18 27 -40 15 -33 23 -40 47 -40 34 0 34 3 7 42 -21 29 -21 30 -3 64 17 32 17 37 4 62 -14 24 -22 27 -73 30 l-57 3 0 -101z m90 42 c0 -24 -25 -57 -37 -49 -8 5 -10 55 -4 85 3 12 41 -23 41 -36z"/> <path d="M825 838 c-23 -61 -55 -164 -55 -175 0 -24 28 -14 37 13 6 19 17 28 37 30 23 2 29 -2 38 -27 7 -21 16 -29 34 -29 30 0 30 8 -4 110 -26 76 -32 85 -55 88 -16 2 -29 -2 -32 -10z m39 -80 c6 -25 3 -28 -17 -28 -24 0 -24 1 -14 46 11 47 15 45 31 -18z"/> <path d="M1047 843 c-3 -5 -5 -50 -6 -100 -2 -88 -1 -93 18 -93 19 0 21 6 21 56 0 31 -4 53 -9 50 -5 -4 -6 5 -2 21 8 31 28 33 23 3 -2 -10 4 -44 13 -74 14 -47 20 -56 39 -56 20 0 26 11 47 83 l25 82 -4 -83 -5 -84 28 4 28 3 1 97 1 98 -30 0 c-27 0 -32 -6 -52 -55 -13 -31 -23 -64 -23 -75 0 -28 -17 -34 -30 -9 -14 24 -4 40 11 19 13 -17 13 -17 -15 68 -16 47 -21 52 -46 52 -16 0 -31 -3 -33 -7z"/> <path d="M383 585 c4 -25 2 -35 -8 -35 -11 0 -25 -20 -25 -36 0 -12 19 -1 23 14 4 13 5 11 6 -5 1 -20 7 -23 39 -23 l37 0 0 60 1 60 -39 0 -40 0 6 -35z"/> <path d="M474 606 c-3 -7 -4 -33 -2 -57 3 -39 6 -44 28 -44 23 0 25 4 28 58 3 55 2 57 -23 57 -14 0 -28 -6 -31 -14z m36 -46 c0 -22 -4 -40 -10 -40 -5 0 -10 18 -10 40 0 22 5 40 10 40 6 0 10 -18 10 -40z"/> <path d="M552 563 c3 -54 5 -58 28 -58 23 0 25 4 30 58 l5 57 -33 0 -33 0 3 -57z m38 -3 c0 -22 -4 -40 -10 -40 -5 0 -10 18 -10 40 0 22 5 40 10 40 6 0 10 -18 10 -40z"/> <path d="M626 604 c-3 -8 -2 -23 4 -33 6 -12 5 -22 -2 -29 -6 -6 -8 -17 -5 -25 4 -12 24 -15 92 -14 l87 2 1 58 c2 42 -2 57 -12 57 -9 0 -11 -8 -7 -26 5 -17 3 -23 -4 -19 -5 3 -10 15 -10 26 0 15 -7 19 -35 19 l-35 0 0 -52 c-1 -53 -1 -53 -16 -25 -8 15 -19 27 -24 27 -6 0 -10 8 -10 18 0 11 3 13 8 5 4 -7 13 -9 21 -4 7 5 10 14 7 20 -11 17 -53 13 -60 -5z m114 -41 c-1 -36 -3 -44 -10 -31 -9 14 -3 78 6 78 2 0 4 -21 4 -47z"/> <path d="M827 614 c-14 -14 -8 -103 8 -112 10 -5 13 -15 9 -25 -3 -9 -10 -15 -14 -12 -13 8 -40 -24 -40 -46 0 -17 6 -18 75 -14 88 5 95 8 88 38 -4 18 -3 19 6 7 6 -8 8 -22 5 -31 -4 -13 2 -16 25 -15 40 2 54 17 43 46 -7 20 -10 21 -22 8 -13 -13 -17 -12 -39 8 l-25 23 -11 -27 c-11 -26 -12 -26 -24 -7 -12 19 -12 19 -7 -3 2 -13 2 -21 -1 -18 -4 3 -13 0 -22 -7 -14 -11 -14 -10 -2 6 20 25 5 34 -20 11 l-22 -19 17 33 c9 17 13 32 9 32 -4 0 1 6 10 13 13 9 17 24 15 62 -3 45 -5 50 -28 53 -14 2 -29 0 -33 -4z m28 -24 c-3 -5 -1 -10 5 -10 6 0 8 -5 3 -12 -4 -7 -6 -21 -5 -30 2 -10 -2 -18 -7 -18 -6 0 -11 18 -11 40 0 22 5 40 11 40 5 0 7 -4 4 -10z"/> <path d="M920 591 c0 -16 -3 -42 -6 -58 l-6 -30 104 -1 c56 -1 109 2 116 6 9 6 12 26 10 58 l-3 49 -52 3 c-56 3 -62 -3 -42 -40 8 -15 8 -19 0 -14 -7 5 -11 -3 -11 -21 0 -22 -2 -25 -10 -13 -14 21 -13 53 2 44 8 -5 9 -2 5 10 -4 10 -7 22 -7 27 0 5 -7 9 -15 9 -12 0 -15 -10 -14 -45 2 -24 0 -48 -4 -51 -6 -6 -12 63 -8 89 0 4 -12 7 -29 7 -26 0 -30 -3 -30 -29z"/> <path d="M1170 559 c0 -52 2 -59 20 -59 14 0 20 7 20 24 0 13 7 27 16 30 9 3 14 13 10 21 -3 8 0 17 6 21 7 5 8 -9 3 -44 l-7 -51 99 2 c95 2 98 3 96 25 -2 14 3 22 12 22 8 0 15 9 15 20 0 11 5 20 10 20 9 0 8 -14 -3 -73 -1 -8 14 -12 43 -11 94 2 92 2 90 32 -3 47 0 63 11 57 6 -4 9 -26 7 -49 -2 -37 0 -41 21 -44 23 -4 24 -2 18 42 -4 26 -2 48 3 51 14 9 31 -42 24 -71 -5 -21 -3 -24 20 -24 23 0 26 4 26 34 0 19 4 46 10 60 l9 26 -175 -1 c-157 -1 -175 -2 -173 -17 3 -33 -1 -75 -7 -69 -3 3 -7 23 -7 44 -2 35 -4 38 -32 38 -29 0 -30 -2 -31 -42 0 -24 -3 -46 -7 -49 -4 -4 -7 2 -7 14 0 29 -18 28 -22 0 -3 -21 -4 -21 -16 5 -6 16 -8 25 -2 22 5 -3 10 1 10 11 0 13 3 14 15 4 13 -11 15 -8 15 13 0 26 -1 26 -70 26 l-70 0 0 -60z m360 6 c0 -24 -5 -35 -15 -35 -17 0 -20 16 -5 25 8 5 8 11 1 19 -6 7 -8 16 -4 19 15 15 23 5 23 -28z"/> <path d="M512 478 c-16 -16 -16 -51 0 -46 7 3 13 13 13 23 0 10 6 20 14 23 11 4 13 -3 7 -34 -3 -22 -9 -49 -12 -61 -11 -39 24 -42 58 -4 16 17 33 29 38 26 6 -3 15 -3 21 1 8 5 8 9 -1 14 -8 5 -9 10 -2 14 6 3 13 -3 17 -14 6 -19 27 -22 52 -7 7 4 10 15 7 25 -5 14 -4 14 4 2 6 -8 9 -17 6 -21 -11 -18 15 -17 31 1 11 13 14 20 6 20 -7 0 -10 4 -7 9 8 12 -20 22 -39 15 -8 -4 -15 -11 -15 -18 0 -6 -5 -4 -10 4 -8 13 -11 13 -19 1 -7 -11 -10 -10 -13 5 -3 17 -5 16 -27 -6 l-23 -25 4 33 c3 20 0 32 -7 32 -15 0 -37 -47 -25 -52 5 -2 6 -9 1 -17 -15 -24 -30 -2 -24 34 5 32 3 35 -19 35 -13 0 -29 -5 -36 -12z"/> <path d="M1072 469 c-26 -67 -25 -69 6 -65 31 3 52 13 52 24 0 4 -11 20 -25 36 l-25 29 -8 -24z"/> <path d="M1426 483 c-3 -3 -6 -16 -6 -27 0 -20 0 -20 -16 2 -17 25 -36 21 -27 -6 5 -14 3 -15 -8 -4 -24 22 -45 13 -64 -28 -18 -40 -16 -58 4 -45 6 3 11 13 11 21 0 8 4 12 10 9 5 -3 18 -1 28 4 11 6 22 8 25 4 13 -12 77 -10 88 4 14 16 30 17 27 1 -2 -8 12 -11 42 -10 42 2 44 1 26 -12 -18 -14 -18 -16 -2 -22 20 -8 77 52 69 73 -6 15 -45 13 -58 -4 -14 -18 -37 -2 -25 17 8 12 10 11 10 -5 1 -18 1 -19 11 -2 5 9 16 17 24 17 8 0 16 4 20 9 3 6 -7 8 -22 7 -16 -2 -36 -4 -45 -5 -11 -1 -18 -9 -18 -22 0 -21 0 -21 -20 2 l-19 24 -1 -25 c0 -18 -3 -21 -9 -11 -5 8 -16 11 -26 7 -13 -4 -16 -2 -12 9 6 15 -6 29 -17 18z"/> <path d="M1237 464 c-3 -3 -22 -6 -42 -6 -28 0 -38 -5 -45 -21 -10 -28 4 -44 24 -28 9 8 16 8 20 2 5 -7 15 -7 33 0 18 7 28 6 33 -1 4 -7 13 -4 24 9 16 17 16 20 1 35 -17 16 -37 21 -48 10z"/> </g> </svg> 