 <svg  version="1.0" xmlns="http://www.w3.org/2000/svg"  width="204.000000pt" height="192.000000pt" viewBox="0 0 204.000000 192.000000"  preserveAspectRatio="xMidYMid meet">  <g transform="translate(0.000000,192.000000) scale(0.100000,-0.100000)" fill="#c0c0c0" stroke="none"> <path d="M15 960 c0 -531 1 -748 2 -483 2 266 2 700 0 965 -1 266 -2 49 -2 -482z"/> <path d="M2025 960 c0 -531 1 -748 2 -483 2 266 2 700 0 965 -1 266 -2 49 -2 -482z"/> <path d="M920 1765 c-7 -8 -9 -19 -5 -25 3 -5 -2 -10 -12 -10 -10 0 -14 -4 -8 -8 13 -9 17 -32 6 -32 -5 0 -7 -8 -4 -18 2 -10 -6 -27 -21 -41 -14 -14 -26 -31 -26 -39 0 -12 -4 -11 -21 4 -27 24 -48 12 -74 -44 -12 -25 -25 -40 -32 -37 -7 2 -13 0 -13 -6 0 -6 -7 -9 -15 -5 -10 3 -15 -1 -15 -14 0 -10 -7 -26 -16 -34 -12 -12 -12 -16 -2 -16 8 0 9 -3 3 -8 -22 -16 -3 -199 23 -219 9 -7 12 -13 7 -13 -5 0 -4 -5 3 -12 7 -7 12 -20 12 -29 0 -14 -9 -17 -42 -17 -24 1 -58 -2 -75 -6 -29 -7 -33 -5 -33 12 0 11 8 34 18 51 13 24 15 34 5 48 -6 10 -16 17 -22 15 -6 -1 -11 2 -11 7 0 32 -135 37 -147 5 -3 -8 -9 -14 -15 -14 -5 0 -6 4 -3 10 3 6 -1 7 -9 4 -9 -3 -16 -12 -16 -20 0 -8 -7 -14 -15 -14 -8 0 -15 -5 -15 -10 0 -6 -9 -20 -20 -32 -43 -47 -14 -161 48 -187 15 -6 61 -13 102 -15 86 -4 156 -35 166 -73 4 -13 11 -23 17 -23 6 0 8 -3 4 -6 -3 -3 5 -18 18 -32 26 -28 26 -43 0 -22 -10 8 -15 9 -15 1 0 -6 -15 -11 -32 -11 -18 0 -41 -7 -50 -14 -22 -16 -23 -45 -3 -52 8 -4 12 -10 9 -15 -3 -5 0 -9 6 -9 6 0 10 -8 9 -17 -1 -10 0 -25 4 -33 3 -8 10 -60 16 -115 7 -61 17 -106 26 -115 20 -19 20 -17 -7 163 -20 137 -23 148 -45 153 -46 12 -22 24 47 24 40 0 70 -4 70 -10 0 -5 -7 -10 -15 -10 -26 0 -27 -24 -10 -140 l18 -111 63 116 c62 113 69 135 38 135 -8 0 -14 5 -14 10 0 6 28 10 65 10 65 0 86 -12 41 -24 -18 -4 -44 -41 -104 -143 -45 -76 -84 -146 -87 -155 -4 -10 -13 -18 -21 -18 -8 0 -14 -7 -14 -16 0 -14 3 -14 15 -4 8 7 15 9 15 4 0 -4 14 8 30 26 17 18 30 40 30 48 0 15 37 52 51 52 5 0 6 -7 3 -15 -4 -8 -2 -15 4 -15 5 0 7 -10 5 -23 -4 -24 58 -101 73 -89 5 4 2 -1 -5 -11 -12 -15 -12 -17 5 -12 18 6 18 6 0 -7 -41 -27 -56 -49 -56 -78 0 -18 6 -33 15 -36 8 -4 15 -13 15 -21 0 -8 4 -11 10 -8 5 3 19 1 30 -5 16 -8 25 -8 35 0 8 6 23 9 35 5 19 -6 29 8 13 18 -5 2 -2 2 5 1 6 -2 12 2 12 8 0 9 3 9 12 0 10 -10 10 -15 -2 -23 -13 -9 -12 -10 3 -5 9 3 17 1 17 -5 0 -6 8 -5 22 2 19 10 24 9 37 -11 9 -12 29 -35 44 -51 15 -16 24 -29 20 -29 -4 0 0 -5 10 -11 25 -14 70 -3 85 22 17 27 8 36 -14 15 -23 -24 -63 -16 -88 17 -28 37 -27 116 2 182 21 47 21 49 2 25 -11 -14 -36 -51 -56 -83 -19 -31 -42 -57 -50 -57 -8 0 -14 1 -14 3 0 1 7 27 15 57 18 67 18 82 2 52 -7 -13 -33 -43 -56 -67 -45 -47 -80 -57 -122 -35 -38 21 -13 100 33 100 17 0 54 -37 46 -46 -4 -3 -15 0 -26 7 -25 16 -52 5 -52 -20 0 -27 40 -37 73 -19 38 20 118 121 104 130 -20 13 -37 9 -31 -6 9 -24 -15 -56 -41 -56 -24 0 -65 31 -65 49 0 5 12 19 26 30 19 15 37 19 66 17 31 -3 38 -1 34 10 -5 13 15 120 31 160 5 14 3 15 -15 5 -27 -14 -32 -14 -26 2 6 16 79 59 86 51 3 -3 -3 -44 -14 -91 -10 -47 -16 -88 -14 -91 3 -3 12 1 21 8 9 7 18 10 21 7 7 -6 -34 -46 -61 -58 -16 -8 -14 -9 11 -6 l31 3 -18 -65 c-24 -84 -24 -85 10 -31 15 25 38 54 49 64 15 13 20 26 16 41 -3 13 1 60 9 106 9 46 18 106 22 133 4 27 9 55 12 63 5 12 1 14 -15 9 -37 -12 -34 13 4 29 70 29 70 31 33 -158 -10 -54 -19 -109 -19 -123 0 -25 15 -33 23 -11 2 6 8 8 13 4 8 -8 -6 -23 -52 -55 -17 -11 -16 -11 4 -2 12 6 22 7 22 3 0 -3 14 6 30 22 20 19 27 32 20 39 -15 15 -12 73 6 90 18 19 65 21 82 4 20 -20 14 -65 -10 -82 l-22 -16 29 -30 c35 -36 39 -37 53 -5 15 33 15 35 -3 35 -8 0 -15 5 -15 10 0 6 22 10 50 10 38 0 48 -3 44 -14 -3 -8 -14 -16 -25 -19 -10 -3 -24 -18 -30 -33 -9 -26 -7 -31 15 -51 14 -12 26 -29 26 -37 0 -28 -21 -28 -50 -1 l-27 26 -34 -20 c-41 -25 -60 -26 -99 -6 -22 11 -30 23 -30 41 0 38 -19 25 -49 -31 -34 -66 -41 -160 -14 -194 18 -22 21 -23 59 -10 54 18 61 26 38 44 -13 11 -14 14 -4 13 8 -2 18 -7 22 -12 4 -6 13 -4 22 3 11 10 16 10 16 2 0 -9 5 -9 21 0 15 8 19 8 15 0 -11 -18 9 -13 33 8 13 11 28 22 34 24 7 2 9 8 5 12 -4 4 -14 0 -23 -8 -11 -11 -33 -16 -75 -15 -62 1 -67 5 -50 39 15 27 6 24 -28 -11 -40 -40 -92 -43 -92 -5 0 28 32 65 55 65 22 0 29 -24 14 -52 -11 -21 -11 -22 5 -9 10 8 23 27 29 42 11 25 14 27 31 14 16 -12 18 -19 8 -40 -14 -31 3 -34 19 -2 25 46 63 60 72 26 4 -16 -1 -24 -26 -34 -18 -8 -24 -14 -15 -15 34 0 67 22 70 48 3 25 4 25 21 8 15 -15 17 -15 17 -2 0 9 5 16 10 16 6 0 10 6 10 14 0 8 6 16 13 19 8 3 6 13 -10 34 -13 19 -18 35 -13 43 5 8 7 17 4 21 -2 4 3 12 11 19 8 7 15 19 15 26 0 13 -58 50 -72 46 -5 -1 -8 5 -8 14 0 8 -4 12 -10 9 -5 -3 -10 1 -10 10 0 9 -5 13 -11 9 -7 -4 -10 -1 -7 7 7 20 -38 39 -81 34 -36 -5 -37 -4 -38 30 -1 19 3 35 9 35 5 0 7 4 4 9 -4 5 -2 20 3 34 7 17 6 29 -2 38 -10 11 -9 11 4 1 20 -15 69 3 69 25 0 8 4 12 9 9 12 -8 37 24 45 59 4 16 13 33 19 37 8 4 7 11 -3 22 -11 14 -10 16 4 10 9 -3 16 -10 16 -15 0 -8 23 8 55 38 8 7 15 9 17 4 2 -4 23 -11 48 -15 32 -4 41 -3 30 4 -11 7 -6 8 18 4 42 -8 98 20 119 61 21 39 33 95 22 95 -5 0 -9 9 -9 19 0 11 -15 36 -34 55 -18 20 -30 38 -27 41 3 3 -2 3 -12 -1 -9 -3 -17 -2 -17 4 0 12 -54 32 -87 32 -32 0 -113 -48 -113 -67 0 -9 5 -11 13 -7 9 6 9 5 0 -7 -10 -12 -9 -18 6 -28 11 -8 16 -22 14 -35 -4 -20 -9 -21 -75 -18 -57 3 -69 2 -62 -9 6 -12 5 -12 -9 -1 -13 11 -14 18 -4 40 6 15 16 30 22 34 6 5 4 8 -5 8 -12 1 -11 3 3 14 23 17 42 131 32 193 -3 24 -15 53 -25 63 -10 10 -16 20 -14 23 3 2 -4 7 -16 10 -11 3 -18 1 -14 -4 3 -5 1 -9 -3 -9 -11 0 -38 42 -35 54 5 15 -9 46 -18 41 -5 -3 -10 1 -13 7 -3 9 -8 10 -16 2 -6 -6 -26 -8 -44 -6 -26 4 -28 6 -13 12 18 6 17 8 -12 25 -24 14 -29 22 -20 32 7 9 7 13 -1 13 -6 0 -11 15 -11 33 0 45 -30 73 -59 57 -12 -6 -27 -8 -33 -4 -23 14 -106 13 -118 -1z m45 -27 c26 -20 29 -20 40 -5 7 9 15 17 18 17 10 0 17 -32 11 -56 -7 -26 -24 -33 -24 -10 0 8 -4 17 -9 20 -5 4 -7 -11 -4 -34 6 -41 5 -42 -67 -99 l-25 -20 31 11 c33 12 64 6 64 -13 0 -7 -18 -10 -53 -7 -38 2 -60 -2 -80 -15 -34 -22 -34 -13 -1 35 30 43 39 48 31 17 -4 -16 -3 -18 9 -8 17 14 18 36 2 42 -10 4 -10 7 -1 17 9 10 15 10 26 2 8 -7 17 -9 20 -5 15 14 6 53 -15 67 -18 13 -19 16 -5 16 21 0 22 8 0 32 -22 25 -2 23 32 -4z m135 -13 c-10 -12 -9 -15 5 -15 10 0 15 -3 12 -7 -4 -3 -2 -12 4 -19 7 -8 7 -14 -1 -19 -6 -4 -9 -1 -8 6 6 24 -21 20 -28 -5 -8 -32 3 -51 21 -36 13 11 45 4 45 -11 0 -5 -7 -9 -15 -9 -18 0 -20 -21 -3 -38 28 -28 -12 -9 -50 24 -35 29 -42 42 -42 71 0 26 4 34 14 30 9 -4 12 0 9 13 -3 11 4 24 19 34 25 18 38 5 18 -19z m-61 -122 c9 -19 9 -29 2 -31 -6 -2 -11 -11 -11 -20 0 -13 -4 -12 -20 6 -17 18 -18 25 -8 47 14 32 22 32 37 -2z m161 -79 c0 -6 6 -17 14 -24 8 -6 12 -18 9 -26 -3 -7 2 -17 11 -20 26 -10 30 3 8 26 -24 26 -34 68 -20 93 14 28 33 14 30 -22 -2 -18 7 -53 22 -84 45 -95 31 -258 -27 -306 -15 -11 -17 -11 -17 2 0 8 7 20 15 27 17 14 21 35 5 25 -7 -4 -9 3 -5 22 5 19 4 24 -3 14 -11 -15 -32 -7 -32 14 0 12 21 25 41 25 5 0 9 -12 10 -27 l1 -28 10 29 c8 21 7 43 -1 78 -11 51 -63 137 -84 139 -33 4 -44 7 -65 14 -13 4 -21 13 -19 19 4 12 41 13 72 2 16 -6 16 -4 -4 12 -14 11 -26 33 -28 48 l-4 29 30 -35 c17 -19 30 -40 31 -46z m-380 51 c9 -11 9 -22 2 -44 -6 -16 -8 -32 -5 -34 3 -3 -4 -12 -16 -19 -27 -16 -27 -28 -1 -21 11 3 23 16 26 30 4 13 9 21 12 18 3 -3 16 2 29 11 13 8 34 14 45 12 29 -4 36 -28 8 -28 -13 0 -19 -4 -14 -11 5 -8 -1 -10 -18 -6 -28 7 -68 -16 -68 -39 0 -8 -4 -14 -9 -14 -20 0 -41 -70 -40 -132 1 -45 3 -54 8 -32 5 28 9 30 29 23 12 -5 25 -15 28 -24 6 -16 24 -21 24 -6 0 4 -11 20 -24 34 -26 28 -39 64 -25 73 5 3 9 12 9 20 0 21 36 57 49 50 7 -5 8 -1 4 11 -6 16 -5 17 11 4 12 -11 16 -23 12 -43 -3 -17 -1 -28 5 -28 7 0 9 -10 5 -25 -4 -14 -2 -25 4 -25 5 0 8 -14 6 -32 -2 -21 3 -39 15 -52 11 -11 19 -26 19 -33 0 -7 8 -13 18 -13 22 -1 62 -30 41 -30 -10 -1 -9 -4 4 -14 18 -14 18 -14 -1 -20 -27 -9 -72 13 -65 30 3 9 0 12 -9 9 -9 -4 -22 4 -32 19 -16 26 -74 62 -83 53 -8 -9 28 -68 39 -65 14 5 128 -105 128 -122 0 -8 -14 -1 -32 17 -18 17 -48 38 -65 47 -18 9 -33 23 -33 31 0 8 -5 15 -11 15 -17 0 -38 32 -39 57 0 12 -4 24 -10 28 -5 3 -8 -9 -6 -30 4 -44 38 -86 92 -113 23 -12 55 -32 71 -46 17 -14 33 -22 37 -19 3 4 5 -3 3 -15 -5 -33 -15 -37 -40 -15 -56 52 -151 70 -189 36 -20 -18 -24 -48 -8 -58 18 -11 10 -25 -14 -25 -29 0 -42 30 -27 59 13 24 14 31 2 31 -12 0 -31 -56 -31 -93 0 -21 10 -39 35 -63 23 -21 31 -34 22 -38 -6 -3 -3 -5 8 -3 24 3 34 37 10 37 -26 0 -12 23 18 31 25 7 27 5 27 -22 0 -31 14 -39 24 -13 3 9 6 29 6 46 0 28 -2 30 -30 26 -18 -3 -30 0 -30 6 1 42 62 53 92 16 23 -28 23 -63 1 -101 -17 -29 -81 -62 -105 -55 -7 3 -25 7 -40 10 -37 8 -78 70 -78 118 0 25 8 46 26 67 l26 31 -34 0 c-42 0 -80 -25 -59 -39 17 -11 7 -41 -13 -41 -25 0 -32 51 -11 67 27 19 4 16 -46 -7 -84 -38 -183 -19 -214 41 -43 81 28 169 150 186 38 5 44 3 40 -9 -4 -9 1 -18 9 -21 9 -4 16 -2 16 3 0 6 5 10 11 10 21 0 4 -45 -18 -48 -24 -4 -30 -16 -13 -27 12 -8 13 -62 1 -69 -5 -3 -12 10 -15 29 -12 63 -73 84 -122 41 -21 -17 -28 -32 -28 -60 0 -20 4 -40 10 -46 6 -6 8 5 6 31 -7 67 43 100 96 63 38 -26 22 -94 -23 -94 -23 0 -55 23 -55 39 0 5 8 15 17 22 15 12 16 12 10 -3 -5 -13 -1 -18 13 -18 13 0 20 7 20 19 0 29 -17 35 -45 17 -29 -19 -32 -42 -8 -68 22 -24 63 -23 156 7 80 26 161 32 187 15 12 -8 11 -11 -8 -16 -17 -5 -20 -9 -11 -14 7 -5 24 0 40 12 31 24 85 21 139 -5 16 -9 28 -11 24 -6 -7 13 -72 39 -96 39 -10 0 -38 20 -63 45 -61 63 -90 151 -80 243 7 67 19 97 36 86 5 -2 6 -47 3 -98 -7 -117 5 -161 57 -217 28 -31 32 -33 13 -9 -42 54 -54 93 -54 177 0 63 5 89 26 133 16 35 24 65 20 81 -8 39 11 52 34 24z m296 -20 c18 -13 15 -14 -28 -15 -45 0 -57 7 -41 23 11 12 48 8 69 -8z m-89 -67 c12 -20 14 -81 3 -98 -15 -23 -30 6 -24 45 4 29 4 29 -6 5 -16 -35 -5 -66 28 -79 35 -15 98 -68 90 -76 -3 -4 -17 0 -30 8 -12 8 -40 18 -61 21 -47 9 -95 51 -103 92 -11 56 75 125 103 82z m77 -13 c8 -8 26 -15 40 -15 14 0 26 -5 26 -12 0 -6 3 -9 6 -5 10 10 32 -17 26 -32 -4 -10 -1 -12 8 -6 9 5 11 4 6 -3 -4 -6 1 -24 11 -38 13 -20 14 -29 5 -32 -6 -2 -12 -10 -12 -18 0 -8 -7 -14 -15 -14 -10 0 -17 -14 -21 -40 -4 -23 -12 -41 -20 -41 -8 -1 -18 -2 -24 -3 -5 -1 -10 4 -11 9 0 6 -5 15 -10 22 -7 7 -6 19 3 33 11 17 11 22 -1 29 -7 5 -11 13 -8 17 3 5 -1 15 -9 22 -8 7 -14 9 -14 5 0 -4 -6 1 -12 12 -7 11 -13 44 -14 73 -2 55 10 67 40 37z m247 -23 c1 -9 2 -51 1 -92 0 -83 -20 -139 -71 -201 -43 -51 -45 -31 -3 30 l37 53 1 117 c0 64 2 120 2 125 3 14 30 -14 33 -32z m-260 -210 c2 -27 -2 -45 -19 -82 l-15 -35 -6 35 c-5 26 -16 41 -50 64 -37 25 -71 74 -71 104 0 4 36 -9 80 -30 52 -25 80 -45 81 -56z m525 10 c49 -21 87 -50 103 -80 17 -32 5 -92 -25 -122 -22 -22 -33 -25 -97 -25 -49 0 -83 6 -106 18 -36 18 -68 24 -38 6 21 -12 23 -55 2 -63 -8 -3 -21 2 -30 10 -21 21 -19 27 6 19 18 -6 19 -5 8 13 -14 23 -38 32 -85 32 -17 0 -38 8 -48 19 -16 17 -15 19 15 25 53 10 82 7 169 -19 96 -29 132 -31 150 -10 14 17 35 9 23 -9 -4 -7 0 -3 10 8 37 40 -10 126 -69 126 -33 0 -74 -42 -74 -75 0 -15 -4 -24 -10 -20 -15 9 -12 61 5 75 22 19 18 28 -10 22 -28 -5 -45 22 -26 41 8 8 11 8 11 -1 0 -6 7 -9 16 -5 8 3 13 12 10 19 -7 19 39 17 90 -4z m-386 -35 c0 -8 -9 -22 -20 -32 -23 -21 -25 -16 -8 20 12 27 28 34 28 12z m-83 -94 c-23 -12 -52 -31 -65 -43 -13 -12 -26 -20 -28 -17 -3 3 20 30 50 60 31 30 56 61 57 69 0 7 7 0 14 -17 13 -30 13 -30 -28 -52z m500 42 c21 -14 38 -65 22 -65 -5 0 -9 6 -9 13 0 21 -35 48 -54 41 -23 -9 -21 -44 4 -44 14 0 18 5 13 18 -5 16 -5 16 11 1 15 -14 16 -19 4 -38 -22 -36 -88 -20 -88 22 0 56 52 84 97 52z m-427 -14 c0 -5 2 -16 5 -23 4 -10 -9 -18 -42 -27 -46 -11 -99 -41 -76 -41 7 0 14 4 18 9 11 18 108 34 137 22 24 -9 68 -62 68 -82 0 -18 -29 -41 -45 -35 -14 5 -16 9 -7 18 19 19 14 45 -10 62 -45 32 -129 15 -186 -37 -19 -18 -25 -19 -32 -8 -14 23 -3 36 76 86 40 26 74 52 74 56 0 5 5 9 10 9 6 0 10 -4 10 -9z m-183 -52 c14 -14 4 -59 -13 -59 -19 0 -35 41 -22 58 13 15 21 15 35 1z m327 -68 c41 -45 27 -138 -26 -175 -31 -22 -106 -20 -145 4 -61 37 -54 141 10 148 29 4 57 -12 57 -32 0 -7 -12 -12 -27 -11 -25 0 -28 -4 -31 -36 -2 -24 2 -40 13 -49 15 -12 17 -12 15 5 -4 40 0 46 27 43 28 -3 45 -28 19 -28 -9 0 -16 -7 -16 -15 0 -13 4 -14 23 -4 47 25 67 51 67 91 0 22 -5 48 -10 59 -14 25 2 25 24 0z m-325 -18 c-6 -35 2 -42 38 -36 24 4 34 3 29 -5 -3 -5 -1 -12 6 -14 16 -6 2 -38 -17 -38 -8 0 -15 7 -15 15 0 8 -9 15 -20 15 -15 0 -20 -7 -21 -27 -2 -60 -5 -68 -19 -68 -9 0 -16 11 -17 30 -5 61 -7 65 -38 65 -9 0 -15 -6 -13 -13 5 -20 -14 -24 -25 -5 -16 25 10 51 45 46 21 -4 28 0 28 12 0 9 3 20 7 23 9 9 33 9 32 0z m-93 -113 c13 0 24 -6 24 -12 0 -7 9 -24 19 -37 15 -20 22 -22 46 -14 27 9 55 53 34 53 -6 0 -7 5 -4 10 4 7 12 7 25 0 25 -13 33 -13 24 3 -4 6 2 4 14 -6 12 -11 18 -25 15 -35 -4 -10 -2 -13 5 -8 7 4 10 -3 8 -21 -2 -16 -4 -29 -5 -31 0 -1 -10 2 -21 8 -18 10 -26 6 -57 -25 -23 -23 -32 -39 -26 -43 8 -5 8 -12 -1 -24 -12 -17 -66 -14 -66 3 0 5 -5 9 -11 9 -5 0 -7 -4 -4 -10 3 -5 1 -10 -4 -10 -6 0 -11 8 -12 18 0 10 -3 12 -6 5 -2 -7 -14 -13 -24 -13 -13 0 -18 -4 -13 -12 5 -7 2 -9 -9 -5 -16 6 -41 -15 -30 -26 3 -4 1 -7 -5 -7 -7 0 -12 5 -12 11 0 5 -5 7 -12 3 -7 -4 -8 -3 -4 5 4 6 12 8 18 5 8 -5 9 -1 5 10 -4 11 -3 15 4 10 6 -3 19 3 30 15 11 12 16 21 12 21 -4 0 -1 5 9 10 9 6 15 18 13 28 -2 9 -4 20 -4 25 -1 4 -12 13 -26 19 -26 12 -35 30 -13 26 7 -2 17 12 23 30 5 18 11 29 13 23 2 -6 15 -11 28 -11z m-177 -138 c14 -11 14 -11 -1 -6 -10 3 -18 1 -18 -5 0 -6 6 -11 13 -11 9 0 8 -3 -2 -9 -8 -5 -11 -17 -6 -32 5 -18 4 -20 -4 -10 -8 12 -11 9 -17 -12 -6 -27 -7 -27 -25 -11 -13 11 -19 31 -19 57 0 36 2 38 17 26 13 -11 15 -11 9 -1 -5 8 -1 20 10 31 12 11 21 14 23 7 2 -6 11 -17 20 -24z m361 9 c0 -22 -25 -45 -40 -36 -11 7 -14 38 -3 48 14 15 43 7 43 -12z m44 -33 c8 -6 8 -8 -1 -8 -6 0 -9 -8 -6 -19 3 -11 -2 -30 -11 -43 l-16 -22 -1 27 c-2 44 -2 51 7 77 5 17 9 20 12 10 3 -8 10 -18 16 -22z m-176 -76 c5 -31 -20 -57 -74 -79 -40 -16 -44 -21 -39 -43 11 -44 39 -51 79 -19 33 26 47 17 20 -12 -22 -25 -66 -49 -89 -49 -8 0 -24 9 -35 20 -26 26 -26 81 -1 136 24 53 56 76 101 72 28 -2 36 -8 38 -26z m19 -78 c-14 -12 -24 -25 -21 -28 2 -3 1 -4 -2 -1 -4 2 -15 0 -26 -6 -19 -10 -19 -9 -3 15 11 16 22 23 32 19 12 -5 14 -3 8 6 -9 15 14 33 29 24 5 -4 -2 -16 -17 -29z"/> <path d="M904 635 c-23 -35 -15 -46 24 -30 21 9 32 21 32 35 0 29 -36 26 -56 -5z"/> <path d="M1297 614 c-12 -12 -8 -51 7 -63 18 -15 39 9 34 41 -3 22 -27 35 -41 22z"/> <path d="M1268 485 c-20 -45 20 -87 68 -70 36 13 34 23 -15 64 l-40 33 -13 -27z"/> <path d="M962 439 c-31 -12 -26 -44 7 -44 14 0 26 6 29 14 3 9 0 11 -8 6 -9 -5 -10 -2 -5 14 3 11 5 21 3 20 -2 0 -13 -4 -26 -10z"/> <path d="M1192 328 c-7 -7 -12 -19 -12 -27 0 -14 1 -14 10 -1 5 8 10 11 10 5 0 -11 20 16 20 28 0 11 -15 8 -28 -5z"/> </g> </svg> 